<svg xmlns="http://www.w3.org/2000/svg" width="1200" height="900" viewBox="0 0 1200 900">
<defs>
  <linearGradient id="g9" x1="0" y1="0" x2="1" y2="1"><stop stop-color="#2e1c17"/><stop offset="1" stop-color="#f3eadf"/></linearGradient>
  <filter id="grain"><feTurbulence type="fractalNoise" baseFrequency="0.8" numOctaves="2" stitchTiles="stitch"/><feColorMatrix type="saturate" values="0"/><feComponentTransfer><feFuncA type="table" tableValues="0 .13"/></feComponentTransfer></filter>
</defs>
<rect width="1200" height="900" fill="url(#g9)"/>
<polygon points="0,900 420.0,180.0 660.0,900 " fill="#f3eadf" opacity=".7"/><rect x="216.0" y="135.0" width="600.0" height="495.00000000000006" fill="#121110" opacity=".12"/><rect x="864.0" y="72.0" width="216.0" height="702.0" fill="#8d6a4e" opacity=".18"/><line x1="144.0" y1="765.0" x2="1056.0" y2="765.0" stroke="#8d6a4e" stroke-width="8" opacity=".65"/>
<circle cx="0" cy="0" r="1" fill="#fff" opacity=".06"/><circle cx="73" cy="47" r="1" fill="#fff" opacity=".06"/><circle cx="146" cy="94" r="1" fill="#fff" opacity=".06"/><circle cx="219" cy="141" r="1" fill="#fff" opacity=".06"/><circle cx="292" cy="188" r="1" fill="#fff" opacity=".06"/><circle cx="365" cy="235" r="1" fill="#fff" opacity=".06"/><circle cx="438" cy="282" r="1" fill="#fff" opacity=".06"/><circle cx="511" cy="329" r="1" fill="#fff" opacity=".06"/><circle cx="584" cy="376" r="1" fill="#fff" opacity=".06"/><circle cx="657" cy="423" r="1" fill="#fff" opacity=".06"/><circle cx="730" cy="470" r="1" fill="#fff" opacity=".06"/><circle cx="803" cy="517" r="1" fill="#fff" opacity=".06"/><circle cx="876" cy="564" r="1" fill="#fff" opacity=".06"/><circle cx="949" cy="611" r="1" fill="#fff" opacity=".06"/><circle cx="1022" cy="658" r="1" fill="#fff" opacity=".06"/><circle cx="1095" cy="705" r="1" fill="#fff" opacity=".06"/><circle cx="1168" cy="752" r="1" fill="#fff" opacity=".06"/><circle cx="41" cy="799" r="1" fill="#fff" opacity=".06"/><circle cx="114" cy="846" r="1" fill="#fff" opacity=".06"/><circle cx="187" cy="893" r="1" fill="#fff" opacity=".06"/><circle cx="260" cy="40" r="1" fill="#fff" opacity=".06"/><circle cx="333" cy="87" r="1" fill="#fff" opacity=".06"/><circle cx="406" cy="134" r="1" fill="#fff" opacity=".06"/><circle cx="479" cy="181" r="1" fill="#fff" opacity=".06"/><circle cx="552" cy="228" r="1" fill="#fff" opacity=".06"/><circle cx="625" cy="275" r="1" fill="#fff" opacity=".06"/><circle cx="698" cy="322" r="1" fill="#fff" opacity=".06"/><circle cx="771" cy="369" r="1" fill="#fff" opacity=".06"/><circle cx="844" cy="416" r="1" fill="#fff" opacity=".06"/><circle cx="917" cy="463" r="1" fill="#fff" opacity=".06"/><circle cx="990" cy="510" r="1" fill="#fff" opacity=".06"/><circle cx="1063" cy="557" r="1" fill="#fff" opacity=".06"/><circle cx="1136" cy="604" r="1" fill="#fff" opacity=".06"/><circle cx="9" cy="651" r="1" fill="#fff" opacity=".06"/><circle cx="82" cy="698" r="1" fill="#fff" opacity=".06"/><circle cx="155" cy="745" r="1" fill="#fff" opacity=".06"/><circle cx="228" cy="792" r="1" fill="#fff" opacity=".06"/><circle cx="301" cy="839" r="1" fill="#fff" opacity=".06"/><circle cx="374" cy="886" r="1" fill="#fff" opacity=".06"/><circle cx="447" cy="33" r="1" fill="#fff" opacity=".06"/><circle cx="520" cy="80" r="1" fill="#fff" opacity=".06"/><circle cx="593" cy="127" r="1" fill="#fff" opacity=".06"/><circle cx="666" cy="174" r="1" fill="#fff" opacity=".06"/><circle cx="739" cy="221" r="1" fill="#fff" opacity=".06"/><circle cx="812" cy="268" r="1" fill="#fff" opacity=".06"/><circle cx="885" cy="315" r="1" fill="#fff" opacity=".06"/><circle cx="958" cy="362" r="1" fill="#fff" opacity=".06"/><circle cx="1031" cy="409" r="1" fill="#fff" opacity=".06"/><circle cx="1104" cy="456" r="1" fill="#fff" opacity=".06"/><circle cx="1177" cy="503" r="1" fill="#fff" opacity=".06"/><circle cx="50" cy="550" r="1" fill="#fff" opacity=".06"/><circle cx="123" cy="597" r="1" fill="#fff" opacity=".06"/><circle cx="196" cy="644" r="1" fill="#fff" opacity=".06"/><circle cx="269" cy="691" r="1" fill="#fff" opacity=".06"/><circle cx="342" cy="738" r="1" fill="#fff" opacity=".06"/><circle cx="415" cy="785" r="1" fill="#fff" opacity=".06"/><circle cx="488" cy="832" r="1" fill="#fff" opacity=".06"/><circle cx="561" cy="879" r="1" fill="#fff" opacity=".06"/><circle cx="634" cy="26" r="1" fill="#fff" opacity=".06"/><circle cx="707" cy="73" r="1" fill="#fff" opacity=".06"/><circle cx="780" cy="120" r="1" fill="#fff" opacity=".06"/><circle cx="853" cy="167" r="1" fill="#fff" opacity=".06"/><circle cx="926" cy="214" r="1" fill="#fff" opacity=".06"/><circle cx="999" cy="261" r="1" fill="#fff" opacity=".06"/><circle cx="1072" cy="308" r="1" fill="#fff" opacity=".06"/><circle cx="1145" cy="355" r="1" fill="#fff" opacity=".06"/><circle cx="18" cy="402" r="1" fill="#fff" opacity=".06"/><circle cx="91" cy="449" r="1" fill="#fff" opacity=".06"/><circle cx="164" cy="496" r="1" fill="#fff" opacity=".06"/><circle cx="237" cy="543" r="1" fill="#fff" opacity=".06"/><circle cx="310" cy="590" r="1" fill="#fff" opacity=".06"/><circle cx="383" cy="637" r="1" fill="#fff" opacity=".06"/><circle cx="456" cy="684" r="1" fill="#fff" opacity=".06"/><circle cx="529" cy="731" r="1" fill="#fff" opacity=".06"/><circle cx="602" cy="778" r="1" fill="#fff" opacity=".06"/><circle cx="675" cy="825" r="1" fill="#fff" opacity=".06"/><circle cx="748" cy="872" r="1" fill="#fff" opacity=".06"/><circle cx="821" cy="19" r="1" fill="#fff" opacity=".06"/><circle cx="894" cy="66" r="1" fill="#fff" opacity=".06"/><circle cx="967" cy="113" r="1" fill="#fff" opacity=".06"/><circle cx="1040" cy="160" r="1" fill="#fff" opacity=".06"/><circle cx="1113" cy="207" r="1" fill="#fff" opacity=".06"/><circle cx="1186" cy="254" r="1" fill="#fff" opacity=".06"/><circle cx="59" cy="301" r="1" fill="#fff" opacity=".06"/><circle cx="132" cy="348" r="1" fill="#fff" opacity=".06"/><circle cx="205" cy="395" r="1" fill="#fff" opacity=".06"/><circle cx="278" cy="442" r="1" fill="#fff" opacity=".06"/><circle cx="351" cy="489" r="1" fill="#fff" opacity=".06"/><circle cx="424" cy="536" r="1" fill="#fff" opacity=".06"/><circle cx="497" cy="583" r="1" fill="#fff" opacity=".06"/><circle cx="570" cy="630" r="1" fill="#fff" opacity=".06"/><circle cx="643" cy="677" r="1" fill="#fff" opacity=".06"/><circle cx="716" cy="724" r="1" fill="#fff" opacity=".06"/><circle cx="789" cy="771" r="1" fill="#fff" opacity=".06"/><circle cx="862" cy="818" r="1" fill="#fff" opacity=".06"/><circle cx="935" cy="865" r="1" fill="#fff" opacity=".06"/><circle cx="1008" cy="12" r="1" fill="#fff" opacity=".06"/><circle cx="1081" cy="59" r="1" fill="#fff" opacity=".06"/><circle cx="1154" cy="106" r="1" fill="#fff" opacity=".06"/><circle cx="27" cy="153" r="1" fill="#fff" opacity=".06"/><circle cx="100" cy="200" r="1" fill="#fff" opacity=".06"/><circle cx="173" cy="247" r="1" fill="#fff" opacity=".06"/><circle cx="246" cy="294" r="1" fill="#fff" opacity=".06"/><circle cx="319" cy="341" r="1" fill="#fff" opacity=".06"/><circle cx="392" cy="388" r="1" fill="#fff" opacity=".06"/><circle cx="465" cy="435" r="1" fill="#fff" opacity=".06"/><circle cx="538" cy="482" r="1" fill="#fff" opacity=".06"/><circle cx="611" cy="529" r="1" fill="#fff" opacity=".06"/><circle cx="684" cy="576" r="1" fill="#fff" opacity=".06"/><circle cx="757" cy="623" r="1" fill="#fff" opacity=".06"/><circle cx="830" cy="670" r="1" fill="#fff" opacity=".06"/><circle cx="903" cy="717" r="1" fill="#fff" opacity=".06"/><circle cx="976" cy="764" r="1" fill="#fff" opacity=".06"/><circle cx="1049" cy="811" r="1" fill="#fff" opacity=".06"/><circle cx="1122" cy="858" r="1" fill="#fff" opacity=".06"/><circle cx="1195" cy="5" r="1" fill="#fff" opacity=".06"/><circle cx="68" cy="52" r="1" fill="#fff" opacity=".06"/><circle cx="141" cy="99" r="1" fill="#fff" opacity=".06"/><circle cx="214" cy="146" r="1" fill="#fff" opacity=".06"/><circle cx="287" cy="193" r="1" fill="#fff" opacity=".06"/>
<rect width="1200" height="900" filter="url(#grain)" opacity=".22"/>
</svg>